<svg xmlns="http://www.w3.org/2000/svg" width="16" height="16" viewBox="0 0 16 16">
    <g fill="none" fill-rule="evenodd">
        <g fill-rule="nonzero">
            <g>
                <g fill="#6E6E7A">
                    <path d="M2.427 10.15c.03 0 .062-.003.093-.008l2.628-.46c.032-.007.061-.021.083-.045l6.624-6.623c.029-.03.045-.069.045-.11 0-.041-.016-.081-.045-.11L9.258.195C9.228.165 9.189.15 9.147.15c-.042 0-.081.016-.111.045L2.413 6.82c-.024.023-.038.051-.044.083L1.908 9.53c-.031.17.024.344.147.465.103.1.232.155.372.155zM3.48 7.425l5.667-5.666 1.145 1.146L4.625 8.57l-1.39.246.245-1.391zm8.67 4.038H.65c-.277 0-.5.223-.5.5v.562c0 .069.056.125.125.125h12.25c.069 0 .125-.056.125-.125v-.563c0-.276-.223-.5-.5-.5z" transform="translate(-1106 -168) translate(1106 168) translate(1.6 1.6)"/>
                </g>
                <path d="M0 0H16V16H0z" transform="translate(-1106 -168) translate(1106 168)"/>
            </g>
        </g>
    </g>
</svg>
